<mxfile host="65bd71144e">
    <diagram id="uiYh5bw60ea9_JOQRi71" name="Page-1">
        <mxGraphModel dx="641" dy="427" grid="1" gridSize="10" guides="1" tooltips="1" connect="1" arrows="1" fold="1" page="1" pageScale="1" pageWidth="850" pageHeight="1100" math="0" shadow="0">
            <root>
                <mxCell id="0"/>
                <mxCell id="1" parent="0"/>
                <mxCell id="20" value="" style="edgeStyle=none;html=1;" edge="1" parent="1" source="16" target="19">
                    <mxGeometry relative="1" as="geometry"/>
                </mxCell>
                <mxCell id="16" value="กรุฌากรอกตัวเลขจำนวนเต็ม" style="shape=parallelogram;perimeter=parallelogramPerimeter;whiteSpace=wrap;html=1;fixedSize=1;dashed=0;" vertex="1" parent="1">
                    <mxGeometry x="320" y="180" width="160" height="60" as="geometry"/>
                </mxCell>
                <mxCell id="22" value="" style="edgeStyle=none;html=1;" edge="1" parent="1" source="19" target="21">
                    <mxGeometry relative="1" as="geometry"/>
                </mxCell>
                <mxCell id="19" value="รับค่าตัวแปล N" style="whiteSpace=wrap;html=1;dashed=0;" vertex="1" parent="1">
                    <mxGeometry x="320" y="280" width="160" height="60" as="geometry"/>
                </mxCell>
                <mxCell id="26" value="" style="edgeStyle=none;html=1;" edge="1" parent="1" source="21" target="25">
                    <mxGeometry relative="1" as="geometry"/>
                </mxCell>
                <mxCell id="29" value="" style="edgeStyle=none;html=1;" edge="1" parent="1" source="21" target="28">
                    <mxGeometry relative="1" as="geometry"/>
                </mxCell>
                <mxCell id="57" value="True" style="edgeLabel;html=1;align=center;verticalAlign=middle;resizable=0;points=[];" vertex="1" connectable="0" parent="29">
                    <mxGeometry x="-0.1135" relative="1" as="geometry">
                        <mxPoint x="-15" y="4" as="offset"/>
                    </mxGeometry>
                </mxCell>
                <mxCell id="21" value="เป็นตัวเลขหรือไม่" style="rhombus;whiteSpace=wrap;html=1;dashed=0;" vertex="1" parent="1">
                    <mxGeometry x="320" y="380" width="160" height="80" as="geometry"/>
                </mxCell>
                <mxCell id="55" style="edgeStyle=none;html=1;exitX=1;exitY=0.5;exitDx=0;exitDy=0;entryX=1;entryY=0.5;entryDx=0;entryDy=0;" edge="1" parent="1" source="25" target="50">
                    <mxGeometry relative="1" as="geometry">
                        <Array as="points">
                            <mxPoint x="800" y="420"/>
                            <mxPoint x="800" y="975"/>
                            <mxPoint x="800" y="1035"/>
                        </Array>
                    </mxGeometry>
                </mxCell>
                <mxCell id="25" value="ไม่ใช่ตัวเลข" style="shape=parallelogram;perimeter=parallelogramPerimeter;whiteSpace=wrap;html=1;fixedSize=1;dashed=0;" vertex="1" parent="1">
                    <mxGeometry x="560" y="390" width="160" height="60" as="geometry"/>
                </mxCell>
                <mxCell id="27" value="False" style="text;html=1;align=center;verticalAlign=middle;resizable=0;points=[];autosize=1;strokeColor=none;fillColor=none;" vertex="1" parent="1">
                    <mxGeometry x="485" y="398" width="50" height="30" as="geometry"/>
                </mxCell>
                <mxCell id="95" style="edgeStyle=none;html=1;exitX=1;exitY=0.5;exitDx=0;exitDy=0;entryX=0.5;entryY=0;entryDx=0;entryDy=0;" edge="1" parent="1" source="28" target="66">
                    <mxGeometry relative="1" as="geometry">
                        <Array as="points">
                            <mxPoint x="560" y="580"/>
                        </Array>
                    </mxGeometry>
                </mxCell>
                <mxCell id="98" style="edgeStyle=none;html=1;exitX=0;exitY=0.5;exitDx=0;exitDy=0;entryX=0.5;entryY=0;entryDx=0;entryDy=0;" edge="1" parent="1" source="28" target="65">
                    <mxGeometry relative="1" as="geometry">
                        <Array as="points">
                            <mxPoint x="240" y="580"/>
                        </Array>
                    </mxGeometry>
                </mxCell>
                <mxCell id="28" value="เป็นเลขคู่หรือไม่&lt;div&gt;โดยใช้ N % 2 = 0&lt;/div&gt;" style="rhombus;whiteSpace=wrap;html=1;dashed=0;" vertex="1" parent="1">
                    <mxGeometry x="320" y="540" width="160" height="80" as="geometry"/>
                </mxCell>
                <mxCell id="100" style="edgeStyle=none;html=1;exitX=0.5;exitY=1;exitDx=0;exitDy=0;entryX=0.5;entryY=0;entryDx=0;entryDy=0;" edge="1" parent="1" source="30" target="67">
                    <mxGeometry relative="1" as="geometry"/>
                </mxCell>
                <mxCell id="30" value="" style="ellipse;whiteSpace=wrap;html=1;aspect=fixed;" vertex="1" parent="1">
                    <mxGeometry x="230" y="700" width="20" height="20" as="geometry"/>
                </mxCell>
                <mxCell id="94" value="" style="edgeStyle=none;html=1;entryX=0.5;entryY=0;entryDx=0;entryDy=0;" edge="1" parent="1" source="32" target="69">
                    <mxGeometry relative="1" as="geometry"/>
                </mxCell>
                <mxCell id="32" value="" style="ellipse;whiteSpace=wrap;html=1;aspect=fixed;" vertex="1" parent="1">
                    <mxGeometry x="550" y="700" width="20" height="20" as="geometry"/>
                </mxCell>
                <mxCell id="35" value="True" style="text;html=1;align=center;verticalAlign=middle;resizable=0;points=[];autosize=1;strokeColor=none;fillColor=none;" vertex="1" parent="1">
                    <mxGeometry x="255" y="550" width="50" height="30" as="geometry"/>
                </mxCell>
                <mxCell id="54" value="" style="edgeStyle=none;html=1;" edge="1" parent="1" source="50">
                    <mxGeometry relative="1" as="geometry">
                        <mxPoint x="400" y="1090" as="targetPoint"/>
                    </mxGeometry>
                </mxCell>
                <mxCell id="50" value="" style="ellipse;whiteSpace=wrap;html=1;aspect=fixed;" vertex="1" parent="1">
                    <mxGeometry x="385" y="1020" width="30" height="30" as="geometry"/>
                </mxCell>
                <mxCell id="53" value="END" style="strokeWidth=2;html=1;shape=mxgraph.flowchart.start_1;whiteSpace=wrap;" vertex="1" parent="1">
                    <mxGeometry x="350" y="1090" width="100" height="60" as="geometry"/>
                </mxCell>
                <mxCell id="59" value="" style="edgeStyle=none;html=1;" edge="1" parent="1" source="58" target="16">
                    <mxGeometry relative="1" as="geometry"/>
                </mxCell>
                <mxCell id="58" value="Start" style="strokeWidth=2;html=1;shape=mxgraph.flowchart.start_1;whiteSpace=wrap;" vertex="1" parent="1">
                    <mxGeometry x="350" y="80" width="100" height="60" as="geometry"/>
                </mxCell>
                <mxCell id="99" style="edgeStyle=none;html=1;exitX=0.5;exitY=1;exitDx=0;exitDy=0;entryX=0.5;entryY=0;entryDx=0;entryDy=0;" edge="1" parent="1" source="65" target="30">
                    <mxGeometry relative="1" as="geometry"/>
                </mxCell>
                <mxCell id="65" value="i = N" style="whiteSpace=wrap;html=1;" vertex="1" parent="1">
                    <mxGeometry x="180" y="610" width="120" height="60" as="geometry"/>
                </mxCell>
                <mxCell id="97" style="edgeStyle=none;html=1;exitX=0.5;exitY=1;exitDx=0;exitDy=0;entryX=0.5;entryY=0;entryDx=0;entryDy=0;" edge="1" parent="1" source="66" target="32">
                    <mxGeometry relative="1" as="geometry"/>
                </mxCell>
                <mxCell id="66" value="i = 1" style="whiteSpace=wrap;html=1;" vertex="1" parent="1">
                    <mxGeometry x="500" y="610" width="120" height="60" as="geometry"/>
                </mxCell>
                <mxCell id="72" value="" style="edgeStyle=none;html=1;" edge="1" parent="1" source="67" target="71">
                    <mxGeometry relative="1" as="geometry"/>
                </mxCell>
                <mxCell id="67" value="i &amp;gt;= 0" style="rhombus;whiteSpace=wrap;html=1;" vertex="1" parent="1">
                    <mxGeometry x="180" y="750" width="120" height="80" as="geometry"/>
                </mxCell>
                <mxCell id="74" value="" style="edgeStyle=none;html=1;" edge="1" parent="1" source="69" target="73">
                    <mxGeometry relative="1" as="geometry"/>
                </mxCell>
                <mxCell id="69" value="&lt;font style=&quot;color: rgb(0, 0, 0);&quot;&gt;i &amp;lt;= N&amp;nbsp;&lt;/font&gt;" style="rhombus;whiteSpace=wrap;html=1;" vertex="1" parent="1">
                    <mxGeometry x="500" y="750" width="120" height="80" as="geometry"/>
                </mxCell>
                <mxCell id="76" value="" style="edgeStyle=none;html=1;" edge="1" parent="1" source="71" target="75">
                    <mxGeometry relative="1" as="geometry"/>
                </mxCell>
                <mxCell id="71" value="แสดงค่าตัวเลข" style="whiteSpace=wrap;html=1;" vertex="1" parent="1">
                    <mxGeometry x="180" y="860" width="120" height="60" as="geometry"/>
                </mxCell>
                <mxCell id="84" value="" style="edgeStyle=none;html=1;" edge="1" parent="1" source="73" target="83">
                    <mxGeometry relative="1" as="geometry"/>
                </mxCell>
                <mxCell id="73" value="แสดง่าตัวเลข" style="whiteSpace=wrap;html=1;" vertex="1" parent="1">
                    <mxGeometry x="500" y="860" width="120" height="60" as="geometry"/>
                </mxCell>
                <mxCell id="101" style="edgeStyle=none;html=1;exitX=0;exitY=0.5;exitDx=0;exitDy=0;entryX=0;entryY=0.5;entryDx=0;entryDy=0;" edge="1" parent="1" source="75" target="30">
                    <mxGeometry relative="1" as="geometry">
                        <Array as="points">
                            <mxPoint x="80" y="975"/>
                            <mxPoint x="80" y="710"/>
                        </Array>
                    </mxGeometry>
                </mxCell>
                <mxCell id="75" value="i -= 2&amp;nbsp;" style="whiteSpace=wrap;html=1;" vertex="1" parent="1">
                    <mxGeometry x="180" y="945" width="120" height="60" as="geometry"/>
                </mxCell>
                <mxCell id="102" style="edgeStyle=none;html=1;exitX=1;exitY=0.5;exitDx=0;exitDy=0;entryX=1;entryY=0.5;entryDx=0;entryDy=0;" edge="1" parent="1" source="83" target="32">
                    <mxGeometry relative="1" as="geometry">
                        <Array as="points">
                            <mxPoint x="720" y="975"/>
                            <mxPoint x="720" y="710"/>
                        </Array>
                    </mxGeometry>
                </mxCell>
                <mxCell id="83" value="i += 2" style="whiteSpace=wrap;html=1;" vertex="1" parent="1">
                    <mxGeometry x="500" y="945" width="120" height="60" as="geometry"/>
                </mxCell>
                <mxCell id="86" value="False" style="text;html=1;align=center;verticalAlign=middle;resizable=0;points=[];autosize=1;strokeColor=none;fillColor=none;" vertex="1" parent="1">
                    <mxGeometry x="305" y="768" width="50" height="30" as="geometry"/>
                </mxCell>
                <mxCell id="87" value="False" style="text;html=1;align=center;verticalAlign=middle;resizable=0;points=[];autosize=1;strokeColor=none;fillColor=none;" vertex="1" parent="1">
                    <mxGeometry x="430" y="768" width="50" height="30" as="geometry"/>
                </mxCell>
                <mxCell id="88" value="True" style="text;html=1;align=center;verticalAlign=middle;resizable=0;points=[];autosize=1;strokeColor=none;fillColor=none;" vertex="1" parent="1">
                    <mxGeometry x="230" y="830" width="50" height="30" as="geometry"/>
                </mxCell>
                <mxCell id="89" value="True" style="text;html=1;align=center;verticalAlign=middle;resizable=0;points=[];autosize=1;strokeColor=none;fillColor=none;" vertex="1" parent="1">
                    <mxGeometry x="520" y="830" width="50" height="30" as="geometry"/>
                </mxCell>
                <mxCell id="103" value="False" style="text;html=1;align=center;verticalAlign=middle;resizable=0;points=[];autosize=1;strokeColor=none;fillColor=none;" vertex="1" parent="1">
                    <mxGeometry x="485" y="550" width="50" height="30" as="geometry"/>
                </mxCell>
                <mxCell id="104" value="" style="strokeWidth=2;html=1;shape=mxgraph.flowchart.annotation_2;align=left;labelPosition=right;pointerEvents=1;rotation=-180;" vertex="1" parent="1">
                    <mxGeometry x="120" y="610" width="50" height="60" as="geometry"/>
                </mxCell>
                <mxCell id="105" value="" style="strokeWidth=2;html=1;shape=mxgraph.flowchart.annotation_2;align=left;labelPosition=right;pointerEvents=1;" vertex="1" parent="1">
                    <mxGeometry x="640" y="610" width="50" height="60" as="geometry"/>
                </mxCell>
                <mxCell id="106" value="Even" style="text;html=1;align=center;verticalAlign=middle;resizable=0;points=[];autosize=1;strokeColor=none;fillColor=none;" vertex="1" parent="1">
                    <mxGeometry x="100" y="625" width="50" height="30" as="geometry"/>
                </mxCell>
                <mxCell id="107" value="Odd" style="text;html=1;align=center;verticalAlign=middle;resizable=0;points=[];autosize=1;strokeColor=none;fillColor=none;" vertex="1" parent="1">
                    <mxGeometry x="660" y="625" width="50" height="30" as="geometry"/>
                </mxCell>
                <mxCell id="108" style="edgeStyle=none;html=1;exitX=0;exitY=0.5;exitDx=0;exitDy=0;entryX=0.833;entryY=0;entryDx=0;entryDy=0;entryPerimeter=0;" edge="1" parent="1" source="69" target="50">
                    <mxGeometry relative="1" as="geometry">
                        <Array as="points">
                            <mxPoint x="410" y="790"/>
                        </Array>
                    </mxGeometry>
                </mxCell>
                <mxCell id="109" style="edgeStyle=none;html=1;exitX=1;exitY=0.5;exitDx=0;exitDy=0;" edge="1" parent="1" source="67">
                    <mxGeometry relative="1" as="geometry">
                        <mxPoint x="390" y="1020" as="targetPoint"/>
                        <Array as="points">
                            <mxPoint x="390" y="790"/>
                        </Array>
                    </mxGeometry>
                </mxCell>
            </root>
        </mxGraphModel>
    </diagram>
</mxfile>